<svg xmlns="http://www.w3.org/2000/svg" viewBox="0 0 498 587" width="498" height="587" role="img" aria-label="Vectorized artwork">
  <title>Vectorized artwork</title>
  <g id="shape-group-1" fill="#36d7d4">
    <path d="M 309 407 C 301.72 405.6 197.95 422.97 192 425 C 186.05 427.03 220.78 433.41 224 436 C 227.22 438.59 237.3 457.17 238 462 C 238.7 466.83 235.68 498.91 234 505 C 232.32 511.09 213.44 547.53 214 549 C 214.56 550.47 237.94 530.2 242 526 C 246.06 521.8 268.22 494.67 272 489 C 275.78 483.33 293.41 450.74 296 445 C 298.59 439.26 316.28 408.4 309 407 Z"/>
  </g>
  <g id="shape-group-2" fill="#111111">
    <path d="M 464 367 C 463.79 365.95 458.85 361.42 455 361 C 451.15 360.58 421.46 360.02 409 361 C 396.54 361.98 296.32 372.06 277 375 C 257.68 377.94 150.01 399.22 133 403 C 115.99 406.78 23.43 430.12 34 429 C 44.57 427.88 259.29 390.71 284 387 C 308.71 383.29 374.82 376.77 387 376 C 399.18 375.23 452.61 376.63 458 376 C 463.39 375.37 464.21 368.05 464 367 Z"/>
    <path d="M 250 34 C 249.72 34.91 271.06 105.1 274 117 C 276.94 128.9 290.32 192.66 292 204 C 293.68 215.34 298.07 268.36 298 279 C 297.93 289.64 291.14 350.33 291 356 C 290.86 361.67 295.23 360.14 296 360 C 296.77 359.86 301.23 356.24 302 354 C 302.77 351.76 307.07 338.85 307 328 C 306.93 317.15 303.03 214.68 301 199 C 298.97 183.32 281.57 115.55 278 104 C 274.43 92.45 250.28 33.09 250 34 Z"/>
  </g>
</svg>
