<svg xmlns="http://www.w3.org/2000/svg" viewBox="0 0 498 587" width="498" height="587" role="img" aria-label="Vectorized artwork">
  <title>Vectorized artwork</title>
  <g id="shape-group-1" fill="#36d7d4" fill-rule="evenodd">
    <path d="M 306.34 408.81 C 306.2 408.51 305.82 408 305.36 407.91 C 304.9 407.82 303.5 407.87 302.39 408.03 C 301.27 408.18 297.23 408.98 295.8 409.22 C 294.37 409.45 291.71 409.85 290.14 410.06 C 288.57 410.27 283.96 410.82 282.33 411.02 C 280.71 411.22 277.82 411.57 276.2 411.77 C 274.57 411.97 270.02 412.52 268.39 412.72 C 266.76 412.92 263.88 413.28 262.26 413.48 C 260.63 413.68 256.08 414.25 254.45 414.46 C 252.83 414.68 249.95 415.08 248.33 415.32 C 246.71 415.56 242.18 416.28 240.56 416.53 C 238.94 416.78 236.07 417.21 234.45 417.46 C 232.83 417.7 228.28 418.37 226.67 418.62 C 225.05 418.88 222.18 419.35 220.57 419.64 C 218.95 419.92 214.41 420.75 212.83 421.05 C 211.25 421.35 208.52 421.91 207.03 422.23 C 205.53 422.55 201.14 423.53 200 423.8 C 198.85 424.07 197.55 424.44 197.22 424.57 C 196.9 424.7 197.15 424.87 197.19 424.95 C 197.23 425.03 197.4 425.17 197.55 425.25 C 197.7 425.33 198.22 425.52 198.49 425.63 C 198.76 425.73 199.41 425.96 199.87 426.13 C 200.32 426.29 201.8 426.81 202.42 427.01 C 203.04 427.22 204.35 427.62 205.2 427.88 C 206.05 428.13 208.83 428.91 209.71 429.19 C 210.59 429.48 212.02 430 212.75 430.31 C 213.48 430.61 215.28 431.47 215.96 431.82 C 216.64 432.18 217.88 432.9 218.6 433.36 C 219.32 433.82 221.43 435.25 222.11 435.76 C 222.79 436.26 223.9 437.16 224.46 437.68 C 225.02 438.19 226.41 439.61 226.91 440.18 C 227.42 440.74 228.31 441.86 228.8 442.55 C 229.29 443.24 230.69 445.37 231.14 446.1 C 231.58 446.82 232.29 448.07 232.64 448.76 C 232.99 449.44 233.84 451.28 234.14 451.99 C 234.44 452.7 234.94 454.04 235.2 454.85 C 235.46 455.66 236.18 458.09 236.4 458.91 C 236.61 459.73 236.94 461.14 237.08 461.9 C 237.22 462.66 237.53 464.66 237.62 465.43 C 237.72 466.2 237.83 467.63 237.87 468.48 C 237.91 469.33 237.95 471.86 237.95 472.72 C 237.96 473.57 237.95 475.02 237.93 475.81 C 237.91 476.59 237.83 478.65 237.78 479.43 C 237.74 480.21 237.64 481.66 237.56 482.5 C 237.48 483.35 237.23 485.86 237.14 486.7 C 237.04 487.55 236.85 488.98 236.74 489.76 C 236.62 490.53 236.29 492.56 236.15 493.33 C 236.01 494.11 235.72 495.53 235.54 496.36 C 235.36 497.19 234.79 499.65 234.59 500.48 C 234.39 501.31 234.03 502.72 233.82 503.47 C 233.61 504.23 233.06 506.13 232.8 506.96 C 232.55 507.78 231.98 509.48 231.61 510.56 C 231.23 511.65 230.06 515 229.58 516.26 C 229.1 517.51 228.14 519.89 227.53 521.32 C 226.91 522.75 224.99 527.07 224.32 528.51 C 223.65 529.95 222.47 532.37 221.8 533.67 C 221.13 534.97 219.07 538.61 218.57 539.64 C 218.08 540.66 217.58 541.99 217.52 542.46 C 217.46 542.93 217.96 543.48 218.06 543.68 C 218.16 543.88 218.3 544.11 218.36 544.18 C 218.42 544.24 218.47 544.25 218.6 544.24 C 218.72 544.23 219.11 544.16 219.43 544.09 C 219.75 544.02 220.78 543.92 221.32 543.65 C 221.87 543.38 223.17 542.49 224.1 541.77 C 225.03 541.04 228.19 538.36 229.29 537.41 C 230.4 536.45 232.41 534.65 233.57 533.57 C 234.74 532.5 238.11 529.32 239.28 528.17 C 240.45 527.03 242.49 524.96 243.61 523.77 C 244.73 522.57 247.82 519.18 248.91 517.95 C 250 516.73 251.89 514.53 252.94 513.27 C 253.99 512.01 256.87 508.44 257.89 507.16 C 258.92 505.88 260.71 503.59 261.71 502.29 C 262.7 500.99 265.48 497.34 266.45 496.02 C 267.42 494.7 269.1 492.33 270.03 490.98 C 270.95 489.63 273.49 485.8 274.38 484.43 C 275.28 483.05 276.82 480.6 277.67 479.2 C 278.52 477.8 280.86 473.85 281.68 472.43 C 282.51 471.01 283.94 468.49 284.73 467.05 C 285.51 465.61 287.7 461.58 288.45 460.12 C 289.21 458.67 290.5 456.07 291.2 454.59 C 291.9 453.1 293.79 448.92 294.46 447.43 C 295.13 445.93 296.29 443.27 296.93 441.76 C 297.57 440.25 299.37 435.94 299.95 434.5 C 300.54 433.05 301.47 430.66 301.94 429.4 C 302.41 428.14 303.61 424.78 303.98 423.69 C 304.35 422.6 304.86 420.9 305.08 420.07 C 305.3 419.24 305.72 417.3 305.86 416.58 C 306 415.85 306.2 414.58 306.29 413.87 C 306.37 413.16 306.6 411.08 306.6 410.49 C 306.61 409.9 306.49 409.11 306.34 408.81 Z"/>
  </g>
  <g id="shape-group-2" fill="#111111" fill-rule="evenodd">
    <path d="M 410.82 361.39 C 410.04 361.38 408.05 361.39 407.19 361.41 C 406.32 361.43 404.55 361.5 403.41 361.55 C 402.27 361.6 398.75 361.77 397.42 361.87 C 396.1 361.97 393.58 362.23 392.05 362.42 C 390.53 362.61 385.97 363.29 384.36 363.49 C 382.76 363.7 379.9 364.01 378.29 364.15 C 376.67 364.3 372.13 364.64 370.51 364.76 C 368.89 364.89 366.02 365.1 364.4 365.22 C 362.78 365.34 358.23 365.64 356.62 365.78 C 355 365.92 352.15 366.23 350.54 366.44 C 348.94 366.65 344.46 367.33 342.86 367.56 C 341.26 367.79 338.42 368.17 336.82 368.38 C 335.21 368.58 330.71 369.12 329.11 369.33 C 327.51 369.55 324.67 369.96 323.08 370.21 C 321.48 370.46 316.93 371.26 315.42 371.5 C 313.91 371.73 311.43 372.07 310.14 372.22 C 308.85 372.37 305.46 372.67 304.36 372.79 C 303.25 372.9 301.52 373.1 300.67 373.21 C 299.83 373.33 297.93 373.6 297.08 373.74 C 296.23 373.88 294.49 374.19 293.38 374.4 C 292.27 374.61 288.84 375.31 287.56 375.55 C 286.28 375.79 283.87 376.21 282.42 376.44 C 280.98 376.67 276.69 377.33 275.17 377.56 C 273.64 377.79 270.91 378.21 269.35 378.44 C 267.8 378.67 263.38 379.31 261.8 379.56 C 260.23 379.81 257.43 380.29 255.85 380.58 C 254.26 380.87 249.82 381.75 248.23 382.05 C 246.65 382.35 243.83 382.87 242.24 383.15 C 240.64 383.43 236.18 384.21 234.59 384.48 C 232.99 384.75 230.16 385.2 228.57 385.45 C 226.97 385.69 222.48 386.32 220.89 386.59 C 219.29 386.85 216.47 387.36 214.89 387.69 C 213.31 388.01 208.87 389.02 207.31 389.35 C 205.74 389.68 203 390.24 201.47 390.53 C 199.94 390.83 195.72 391.6 194.19 391.89 C 192.66 392.17 189.92 392.69 188.35 392.99 C 186.79 393.28 182.35 394.12 180.76 394.43 C 179.18 394.74 176.38 395.31 174.8 395.65 C 173.22 395.98 168.8 396.95 167.22 397.29 C 165.64 397.64 162.84 398.26 161.26 398.61 C 159.68 398.97 155.26 399.97 153.68 400.33 C 152.11 400.68 149.31 401.3 147.73 401.65 C 146.15 402 141.71 402.96 140.14 403.31 C 138.58 403.65 135.86 404.26 134.34 404.61 C 132.83 404.95 128.59 405.95 127.16 406.27 C 125.72 406.58 123.31 407.06 122.03 407.28 C 120.74 407.51 117.27 408.03 116.15 408.22 C 115.03 408.4 113.3 408.72 112.45 408.89 C 111.61 409.06 109.66 409.5 108.91 409.68 C 108.16 409.86 106.79 410.21 105.99 410.43 C 105.2 410.65 102.9 411.33 102.1 411.55 C 101.31 411.77 99.94 412.13 99.19 412.31 C 98.43 412.5 96.49 412.96 95.65 413.14 C 94.81 413.32 93.08 413.67 91.96 413.88 C 90.85 414.09 87.4 414.68 86.11 414.93 C 84.81 415.19 82.34 415.72 80.84 416.06 C 79.35 416.4 74.86 417.5 73.29 417.87 C 71.72 418.25 68.93 418.92 67.36 419.29 C 65.78 419.67 61.3 420.72 59.8 421.09 C 58.3 421.45 55.83 422.09 54.53 422.44 C 53.23 422.78 49.76 423.75 48.66 424.07 C 47.57 424.4 45.9 424.93 45.11 425.2 C 44.33 425.47 42.51 426.2 41.93 426.43 C 41.36 426.66 40.53 427 40.17 427.16 C 39.82 427.33 39.08 427.7 38.87 427.81 C 38.66 427.93 38.43 428.09 38.39 428.15 C 38.34 428.21 38.12 428.36 38.45 428.35 C 38.77 428.34 40.06 428.21 41.19 428.07 C 42.31 427.93 46.64 427.37 48.1 427.16 C 49.55 426.94 52.15 426.49 53.63 426.2 C 55.11 425.92 59.28 424.99 60.8 424.69 C 62.32 424.39 65.06 423.89 66.63 423.63 C 68.21 423.37 72.71 422.72 74.31 422.46 C 75.9 422.2 78.72 421.71 80.31 421.41 C 81.9 421.11 86.33 420.2 87.91 419.89 C 89.5 419.59 92.32 419.07 93.91 418.79 C 95.5 418.51 99.97 417.77 101.57 417.51 C 103.17 417.25 106 416.8 107.6 416.56 C 109.19 416.32 113.68 415.67 115.28 415.44 C 116.88 415.21 119.71 414.79 121.3 414.56 C 122.9 414.33 127.36 413.69 128.95 413.44 C 130.54 413.19 133.36 412.72 134.95 412.44 C 136.54 412.16 140.99 411.32 142.58 411.02 C 144.17 410.73 146.98 410.21 148.56 409.91 C 150.15 409.62 154.58 408.82 156.16 408.51 C 157.75 408.21 160.55 407.64 162.13 407.31 C 163.71 406.98 168.13 405.97 169.71 405.65 C 171.3 405.33 174.12 404.82 175.71 404.56 C 177.31 404.3 181.79 403.67 183.39 403.44 C 184.99 403.21 187.83 402.79 189.43 402.55 C 191.03 402.32 195.51 401.65 197.11 401.42 C 198.71 401.18 201.54 400.77 203.14 400.54 C 204.74 400.3 209.31 399.64 210.83 399.43 C 212.34 399.23 214.83 398.93 216.12 398.79 C 217.41 398.65 220.81 398.37 221.91 398.26 C 223.02 398.14 224.74 397.93 225.59 397.81 C 226.44 397.69 228.32 397.37 229.16 397.21 C 229.99 397.05 231.68 396.68 232.74 396.43 C 233.81 396.18 237.05 395.34 238.3 395.05 C 239.55 394.76 241.98 394.25 243.48 393.96 C 244.97 393.67 249.52 392.83 251.11 392.55 C 252.7 392.27 255.53 391.81 257.13 391.56 C 258.72 391.31 263.29 390.64 264.81 390.44 C 266.32 390.24 268.8 389.94 270.1 389.81 C 271.39 389.68 274.77 389.42 275.88 389.31 C 276.98 389.21 278.71 389.02 279.56 388.92 C 280.41 388.81 282.4 388.51 283.15 388.39 C 283.9 388.28 285.23 388.04 285.98 387.9 C 286.74 387.75 288.85 387.29 289.6 387.15 C 290.36 387 291.69 386.77 292.44 386.65 C 293.19 386.53 295.17 386.23 296.03 386.13 C 296.88 386.02 298.64 385.83 299.78 385.72 C 300.91 385.61 304.42 385.34 305.74 385.2 C 307.06 385.07 309.57 384.77 311.09 384.56 C 312.62 384.35 317.26 383.65 318.78 383.44 C 320.29 383.23 322.76 382.92 324.05 382.78 C 325.33 382.63 328.51 382.34 329.79 382.21 C 331.07 382.08 333.53 381.82 335.02 381.65 C 336.52 381.49 341.03 380.97 342.62 380.79 C 344.21 380.61 347.04 380.3 348.64 380.13 C 350.25 379.96 354.77 379.48 356.38 379.32 C 357.99 379.16 360.86 378.9 362.48 378.76 C 364.09 378.63 368.72 378.29 370.25 378.16 C 371.79 378.03 374.31 377.78 375.63 377.64 C 376.94 377.49 380.4 377.04 381.52 376.91 C 382.65 376.78 384.41 376.6 385.26 376.53 C 386.12 376.46 388.02 376.32 388.89 376.28 C 389.75 376.23 391.54 376.17 392.69 376.14 C 393.83 376.11 397.39 376.06 398.73 376.04 C 400.08 376.02 402.65 376 404.21 376 C 405.77 376 410.45 376.03 412.09 376 C 413.73 375.97 416.62 375.87 418.25 375.78 C 419.87 375.69 424.4 375.31 426.03 375.22 C 427.65 375.13 430.54 375.03 432.18 375 C 433.82 374.97 438.5 374.98 440.07 375 C 441.63 375.02 444.24 375.1 445.61 375.17 C 446.98 375.25 450.72 375.6 451.84 375.62 C 452.96 375.63 454.55 375.49 455.22 375.31 C 455.88 375.13 457.1 374.44 457.57 374.09 C 458.05 373.75 458.84 372.93 459.26 372.36 C 459.69 371.78 460.91 369.75 461.21 369.16 C 461.5 368.58 461.77 367.71 461.78 367.33 C 461.8 366.94 461.57 366.18 461.31 365.86 C 461.04 365.54 460.19 364.96 459.5 364.61 C 458.82 364.26 456.22 363.21 455.4 362.9 C 454.57 362.59 453.18 362.15 452.43 361.96 C 451.69 361.77 449.84 361.38 449 361.27 C 448.16 361.16 446.41 361.03 445.26 361 C 444.11 360.97 440.42 360.98 439.16 361 C 437.89 361.02 435.67 361.08 434.41 361.13 C 433.16 361.19 429.57 361.42 428.43 361.47 C 427.29 361.53 425.52 361.6 424.65 361.62 C 423.79 361.64 421.8 361.65 421.02 361.65 C 420.24 361.65 418.81 361.62 417.98 361.6 C 417.14 361.58 414.7 361.46 413.86 361.44 C 413.03 361.41 411.6 361.39 410.82 361.39 Z"/>
    <path d="M 250.43 35.05 C 250.27 34.77 250.26 34.85 250.29 35.09 C 250.32 35.34 250.5 36.31 250.67 37.15 C 250.85 38 251.56 41.34 251.78 42.35 C 252 43.35 252.37 44.96 252.57 45.77 C 252.77 46.58 253.26 48.45 253.49 49.28 C 253.72 50.11 254.22 51.81 254.55 52.89 C 254.87 53.98 255.92 57.31 256.31 58.57 C 256.7 59.83 257.44 62.24 257.88 63.7 C 258.32 65.16 259.65 69.53 260.12 71.07 C 260.59 72.61 261.41 75.36 261.88 76.91 C 262.35 78.46 263.66 82.84 264.12 84.4 C 264.58 85.96 265.4 88.72 265.86 90.28 C 266.32 91.84 267.61 96.21 268.06 97.77 C 268.52 99.33 269.32 102.09 269.77 103.65 C 270.22 105.2 271.49 109.55 271.92 111.11 C 272.35 112.67 273.07 115.45 273.45 117.02 C 273.83 118.6 274.85 123.02 275.21 124.6 C 275.56 126.18 276.19 128.98 276.53 130.56 C 276.87 132.14 277.8 136.57 278.15 138.16 C 278.49 139.74 279.13 142.53 279.49 144.11 C 279.86 145.69 280.92 150.11 281.29 151.69 C 281.66 153.26 282.3 156.06 282.66 157.64 C 283.02 159.22 284.01 163.64 284.34 165.23 C 284.67 166.81 285.21 169.63 285.49 171.22 C 285.77 172.82 286.46 177.3 286.74 178.89 C 287.01 180.49 287.53 183.31 287.84 184.89 C 288.15 186.48 289.1 190.92 289.39 192.5 C 289.68 194.07 290.13 196.84 290.35 198.39 C 290.57 199.94 291.07 204.24 291.24 205.78 C 291.42 207.33 291.7 210.08 291.85 211.64 C 292 213.2 292.37 217.58 292.51 219.14 C 292.64 220.7 292.89 223.46 293.04 225.01 C 293.18 226.56 293.59 230.89 293.73 232.44 C 293.87 233.98 294.1 236.71 294.22 238.24 C 294.34 239.77 294.66 244.04 294.78 245.59 C 294.9 247.14 295.1 249.93 295.22 251.54 C 295.34 253.14 295.67 257.7 295.78 259.32 C 295.89 260.95 296.09 263.82 296.2 265.44 C 296.3 267.06 296.61 271.61 296.7 273.23 C 296.78 274.85 296.88 277.7 296.92 279.31 C 296.95 280.92 296.99 285.39 296.98 287 C 296.96 288.61 296.87 291.46 296.78 293.08 C 296.69 294.7 296.32 299.33 296.22 300.87 C 296.12 302.41 296 304.97 295.96 306.31 C 295.92 307.65 295.88 311.21 295.85 312.36 C 295.82 313.51 295.75 315.3 295.69 316.16 C 295.64 317.03 295.46 319.02 295.39 319.77 C 295.31 320.53 295.16 321.87 295.05 322.63 C 294.95 323.39 294.6 325.52 294.5 326.28 C 294.4 327.04 294.24 328.38 294.17 329.14 C 294.1 329.89 293.94 332.04 293.9 332.75 C 293.85 333.46 293.8 334.61 293.78 335.21 C 293.77 335.81 293.79 337.27 293.77 337.87 C 293.75 338.47 293.68 339.62 293.62 340.33 C 293.56 341.03 293.35 343.13 293.25 343.91 C 293.15 344.7 292.91 346.17 292.75 347.06 C 292.58 347.94 291.95 350.71 291.85 351.48 C 291.74 352.26 291.75 353.3 291.86 353.69 C 291.97 354.09 292.53 354.69 292.8 354.89 C 293.07 355.09 293.74 355.33 294.21 355.4 C 294.68 355.47 296.35 355.54 296.86 355.49 C 297.36 355.45 298.16 355.22 298.56 355.01 C 298.95 354.8 299.9 354.2 300.23 353.7 C 300.56 353.21 301.11 351.84 301.4 350.79 C 301.68 349.73 302.43 345.92 302.68 344.67 C 302.92 343.43 303.32 341.29 303.51 340.13 C 303.71 338.96 304.2 335.72 304.35 334.67 C 304.5 333.62 304.7 331.95 304.79 331.11 C 304.87 330.28 305.02 328.26 305.06 327.5 C 305.11 326.75 305.16 325.41 305.17 324.65 C 305.18 323.89 305.16 321.75 305.17 320.99 C 305.18 320.23 305.23 318.89 305.27 318.13 C 305.31 317.38 305.45 315.29 305.51 314.52 C 305.57 313.75 305.72 312.34 305.82 311.53 C 305.92 310.72 306.26 308.36 306.36 307.54 C 306.45 306.73 306.59 305.33 306.65 304.56 C 306.71 303.79 306.83 301.8 306.86 300.94 C 306.89 300.09 306.91 298.33 306.9 297.21 C 306.89 296.09 306.8 292.56 306.79 291.32 C 306.78 290.09 306.78 287.88 306.79 286.63 C 306.8 285.37 306.89 281.72 306.9 280.57 C 306.91 279.42 306.9 277.64 306.89 276.77 C 306.87 275.9 306.79 274 306.74 273.15 C 306.69 272.29 306.56 270.56 306.47 269.46 C 306.37 268.36 306.01 264.98 305.91 263.7 C 305.8 262.41 305.65 259.95 305.58 258.44 C 305.51 256.94 305.39 252.42 305.31 250.83 C 305.24 249.23 305.06 246.39 304.94 244.78 C 304.82 243.17 304.4 238.63 304.27 237.01 C 304.13 235.39 303.9 232.51 303.78 230.89 C 303.66 229.27 303.36 224.72 303.22 223.11 C 303.08 221.49 302.77 218.63 302.56 217.03 C 302.35 215.42 301.64 210.86 301.44 209.34 C 301.24 207.82 300.94 205.3 300.81 203.97 C 300.68 202.65 300.42 199.14 300.32 198.01 C 300.21 196.87 300.03 195.11 299.92 194.25 C 299.81 193.4 299.54 191.51 299.39 190.66 C 299.25 189.81 298.93 188.08 298.71 186.97 C 298.48 185.86 297.76 182.44 297.48 181.15 C 297.21 179.86 296.67 177.38 296.34 175.88 C 296.01 174.38 295.02 169.88 294.66 168.3 C 294.3 166.72 293.65 163.92 293.27 162.35 C 292.88 160.77 291.79 156.36 291.39 154.79 C 291 153.22 290.29 150.43 289.88 148.87 C 289.47 147.3 288.3 142.91 287.88 141.34 C 287.46 139.78 286.69 137.01 286.25 135.44 C 285.81 133.88 284.53 129.51 284.1 127.95 C 283.66 126.38 282.91 123.6 282.51 122.03 C 282.1 120.46 281.04 116.04 280.62 114.47 C 280.2 112.9 279.38 110.14 278.89 108.59 C 278.39 107.04 276.91 102.73 276.38 101.19 C 275.85 99.65 274.92 96.93 274.38 95.39 C 273.85 93.85 272.35 89.55 271.82 88.01 C 271.28 86.48 270.34 83.77 269.81 82.24 C 269.28 80.72 267.83 76.46 267.28 74.94 C 266.73 73.42 265.73 70.74 265.13 69.23 C 264.54 67.73 262.81 63.52 262.2 62.01 C 261.59 60.51 260.5 57.83 259.89 56.32 C 259.28 54.81 257.56 50.51 256.95 49.04 C 256.34 47.58 255.25 45.08 254.63 43.73 C 254.01 42.38 252.15 38.5 251.66 37.48 C 251.17 36.47 250.59 35.32 250.43 35.05 Z"/>
  </g>
</svg>
