<svg xmlns="http://www.w3.org/2000/svg" viewBox="0 0 498 587" width="498" height="587" role="img" aria-label="Vectorized artwork">
  <title>Vectorized artwork</title>
  <g id="shape-group-1" fill="#36d7d4" fill-rule="evenodd">
    <path d="M 282.13 412.12 C 272.16 412.79 228.69 419.77 219.22 421.6 C 209.75 423.43 201.18 426.35 200.97 427.82 C 200.76 429.28 214.4 432.51 217.42 434.17 C 220.43 435.83 224.85 439.52 226.82 442.02 C 228.79 444.53 233.16 452.41 234.31 455.65 C 235.46 458.89 236.57 465.54 236.67 469.8 C 236.77 474.06 235.91 487.39 235.19 492.2 C 234.47 497.01 232.29 505.88 230.53 511.07 C 228.78 516.26 221.22 533.04 220.17 536.7 C 219.11 540.35 219.74 543.03 221.49 542.4 C 223.25 541.77 232.17 534.15 235.25 531.3 C 238.32 528.44 244.24 522.16 247.86 517.93 C 251.47 513.69 262.62 499.86 266.2 495.01 C 269.79 490.15 275.6 481.37 278.57 476.32 C 281.55 471.27 289.31 456.55 291.7 451.68 C 294.09 446.81 297.54 438.79 299.05 434.61 C 300.57 430.42 306.62 418.41 304.65 415.79 C 302.67 413.16 292.09 411.44 282.13 412.12 Z"/>
  </g>
  <g id="shape-group-2" fill="#111111" fill-rule="evenodd">
    <path d="M 460.86 366.61 C 460.2 365.82 457.78 363.5 455.92 362.89 C 454.07 362.28 448.93 361.57 444.97 361.37 C 441.01 361.18 429.2 360.85 422.02 361.21 C 414.83 361.57 396.68 363.1 383.38 364.46 C 370.07 365.82 323.95 370.79 307.97 372.87 C 292 374.96 263.12 379.4 246.47 382.34 C 229.83 385.27 181 394.84 165.33 398 C 149.65 401.16 124.66 406.52 112.12 409.42 C 99.58 412.31 59.89 421.73 57.83 422.81 C 55.78 423.89 72.99 421.96 94.48 418.7 C 115.97 415.44 215.72 398.97 242.03 394.85 C 268.35 390.74 304.98 385.37 320.02 383.42 C 335.06 381.48 361.01 379.05 370.98 378.18 C 380.95 377.3 397.17 376.24 405.51 375.92 C 413.85 375.6 436.3 375.69 442.45 375.43 C 448.61 375.16 456.02 374.33 458.25 373.66 C 460.47 372.98 461.21 370.47 461.51 369.64 C 461.81 368.82 461.51 367.4 460.86 366.61 Z"/>
    <path d="M 255.75 54.44 C 257.14 60.09 266.05 90.53 268.58 100.07 C 271.1 109.62 275.25 126.62 277.4 136.26 C 279.56 145.9 285.31 173.11 287.04 182.74 C 288.77 192.37 291.19 209.32 292.21 218.82 C 293.22 228.32 295.29 254.99 295.73 264.18 C 296.17 273.37 296.27 289.08 295.95 297.62 C 295.64 306.16 293.38 330.77 293.01 337.37 C 292.64 343.97 292.54 351.87 292.79 354.19 C 293.04 356.51 294.63 357 295.18 357.26 C 295.73 357.51 296.82 357.1 297.51 356.38 C 298.2 355.66 300.36 353.02 301.06 351.08 C 301.75 349.14 302.87 343.82 303.45 339.76 C 304.02 335.7 305.75 322.89 305.99 316.24 C 306.23 309.59 306 293.89 305.51 282.8 C 305.02 271.71 302.94 233.57 301.76 221.2 C 300.57 208.83 297.56 187.96 295.34 176.76 C 293.13 165.56 285.51 135.37 282.77 125.24 C 280.03 115.11 274.91 98.53 271.86 89.93 C 268.82 81.34 258.56 55.72 256.68 51.58 C 254.8 47.43 254.36 48.78 255.75 54.44 Z"/>
  </g>
</svg>
