<svg xmlns="http://www.w3.org/2000/svg" viewBox="0 0 498 587" width="498" height="587" role="img" aria-label="Vectorized artwork">
  <title>Vectorized artwork</title>
  <style>
    :root {
      --ov-group-1: #2f9f8f;
      --ov-group-2: #171717;
    }
    .shape-group-1 { fill: var(--ov-group-1, #2f9f8f); }
    .shape-group-2 { fill: var(--ov-group-2, #171717); }
    @media (prefers-color-scheme: dark) {
      :root {
        --ov-group-1: #8edbc8;
        --ov-group-2: #f4ead8;
      }
    }
  </style>
  <g id="shape-group-1" class="shape-group shape-group-1" fill-rule="evenodd">
    <path d="M 240.59 416.55 C 237.65 416.97 228.81 418.24 231.75 417.8 C 234.06 417.45 222.52 419.29 224.82 418.9 C 227.76 418.41 213.1 421 216.03 420.46 C 218.24 420.06 207.2 422.16 209.4 421.72 C 212.1 421.19 198.65 423.95 201.33 423.36 C 202.46 423.12 198.93 425.36 198.1 424.56 C 196.91 423.42 204.03 427.43 202.52 426.78 C 201.24 426.23 207.67 428.86 206.37 428.35 C 202.88 426.99 220.1 434.36 216.79 432.6 C 215.76 432.06 220.71 435.14 219.76 434.46 C 217.39 432.78 228.33 442.31 226.28 440.25 C 224.65 438.62 231.84 447.61 230.62 445.65 C 230.01 444.68 232.77 449.71 232.26 448.68 C 230.99 446.05 236.53 459.56 235.65 456.77 C 235.29 455.64 236.81 461.35 236.56 460.2 C 236.31 459.07 237.26 464.76 237.12 463.61 C 236.76 460.71 237.96 475.3 237.85 472.37 C 237.81 471.17 237.86 477.19 237.89 475.98 C 237.94 473.06 237.04 487.67 237.31 484.75 C 237.52 482.39 235.96 494.15 236.37 491.81 C 236.57 490.66 235.45 496.38 235.69 495.24 C 236.31 492.38 232.87 506.62 233.65 503.8 C 233.97 502.63 232.25 508.43 232.62 507.27 C 233.05 505.94 230.78 512.58 231.25 511.26 C 232.05 509.03 227.94 520.14 228.8 517.94 C 230.65 513.21 220.47 536.45 222.6 531.84 C 223.53 529.85 218.94 539.81 219.85 537.82 C 220.94 535.45 215.54 547.32 216.6 544.94 C 217.03 543.96 216.58 547.46 215.66 548 C 214.74 548.54 219.1 545.52 218.25 546.16 C 216.12 547.77 226.69 539.61 224.6 541.28 C 220.55 544.52 240.08 527.44 236.31 531 C 234.61 532.6 242.91 524.39 241.29 526.07 C 239.22 528.21 249.36 517.31 247.36 519.52 C 245.79 521.26 253.5 512.47 251.98 514.25 C 250.06 516.52 259.55 505.06 257.68 507.37 C 254.34 511.5 270.47 490.39 267.35 494.7 C 265.98 496.59 272.66 487 271.36 488.94 C 268.4 493.36 282.56 470.88 279.88 475.47 C 277.19 480.05 289.99 456.77 287.57 461.5 C 285.15 466.23 296.68 442.3 294.51 447.15 C 292.43 451.78 302.3 428.39 300.45 433.13 C 299.59 435.34 303.75 424.22 302.95 426.46 C 302.48 427.77 304.67 421.12 304.27 422.47 C 303.93 423.61 305.4 417.81 305.15 418.98 C 304.57 421.63 306.6 408.23 306.39 410.93 C 306.34 411.67 306.06 408 306.29 408.71 C 306.74 410.07 300.63 408.23 302.05 408.03 C 304.59 407.67 291.96 409.8 294.49 409.38 C 299.57 408.55 274.05 412.01 279.16 411.39 C 281.48 411.11 269.88 412.53 272.2 412.24 C 277.47 411.59 251.12 415.02 256.38 414.28 C 259.33 413.87 244.59 415.98 247.54 415.56 C 249.86 415.22 238.28 416.88 240.59 416.55 Z"/>
  </g>
  <g id="shape-group-2" class="shape-group shape-group-2" fill-rule="evenodd">
    <path d="M 349.68 366.56 C 347.39 366.85 340.53 367.73 342.82 367.44 C 345.73 367.07 331.18 368.94 334.09 368.56 C 336.37 368.26 324.95 369.81 327.23 369.49 C 330.14 369.08 315.61 371.14 318.52 370.74 C 323.63 370.03 298.04 373.34 303.15 372.65 C 308.31 371.95 282.64 376.31 287.76 375.35 C 290 374.93 278.79 376.98 281.04 376.58 C 283.86 376.08 269.73 378.52 272.56 378.05 C 274.79 377.68 263.63 379.43 265.86 379.1 C 268.72 378.68 254.43 380.74 257.28 380.3 C 262.44 379.51 236.78 384.2 241.9 383.19 C 244.16 382.74 232.85 384.92 235.12 384.5 C 237.99 383.96 223.59 386.6 226.47 386.09 C 231.63 385.17 205.79 389.42 210.96 388.59 C 213.22 388.22 201.92 390.11 204.18 389.72 C 209.28 388.83 183.82 393.57 188.9 392.56 C 191.76 391.99 177.5 394.91 180.35 394.31 C 182.59 393.84 171.37 396.25 173.61 395.76 C 178.73 394.64 153.14 400.21 158.27 399.13 C 161.13 398.52 146.79 401.51 149.66 400.91 C 151.89 400.44 140.73 402.83 142.96 402.34 C 148.01 401.24 122.76 406.65 127.82 405.62 C 132.95 404.58 107.29 409.73 112.42 408.69 C 117.53 407.65 92.03 413.24 97.1 412 C 99.92 411.31 85.86 414.86 88.67 414.15 C 93.74 412.87 68.37 419.1 73.45 417.89 C 75.69 417.36 64.46 419.95 66.71 419.44 C 69.58 418.8 55.25 422 58.11 421.33 C 60.28 420.82 49.49 423.55 51.63 422.97 C 54.27 422.24 41.14 426.03 43.76 425.25 C 44.82 424.93 41.45 427.32 40.69 426.52 C 40.06 425.85 44.33 426.92 43.42 426.89 C 42.55 426.85 46.88 426.96 46.01 426.97 C 43.13 426.99 57.51 426.15 54.64 426.4 C 53.45 426.51 59.37 425.88 58.19 426.03 C 55.63 426.35 68.36 424.17 65.83 424.71 C 61.57 425.6 82.86 421.05 78.6 421.94 C 75.73 422.54 90.08 419.59 87.21 420.16 C 82.07 421.17 107.86 416.76 102.68 417.54 C 97.51 418.33 123.44 414.7 118.26 415.44 C 115.98 415.77 127.33 413.93 125.07 414.34 C 119.93 415.27 145.54 410.34 140.42 411.34 C 137.55 411.9 151.88 409.1 149.02 409.66 C 146.76 410.1 158.04 407.9 155.79 408.34 C 152.91 408.9 167.3 406.12 164.42 406.66 C 159.27 407.62 185.08 403.3 179.91 404.12 C 177.64 404.48 189.01 402.64 186.73 403.02 C 183.84 403.49 198.29 401.11 195.4 401.57 C 190.23 402.4 216.14 398.61 210.96 399.36 C 208.7 399.69 219.97 397.9 217.72 398.29 C 214.89 398.78 229.04 396.23 226.21 396.73 C 223.96 397.13 235.21 395.22 232.96 395.59 C 227.79 396.42 253.64 392.23 248.48 393.11 C 245.59 393.61 260.02 391.12 257.13 391.6 C 254.86 391.97 266.24 390.23 263.96 390.55 C 258.82 391.27 284.55 387.86 279.41 388.54 C 274.37 389.2 299.53 385.91 294.5 386.56 C 291.59 386.94 306.14 385.07 303.23 385.44 C 300.94 385.73 312.38 384.27 310.09 384.56 C 304.91 385.22 330.79 381.89 325.61 382.56 C 322.76 382.93 337.04 381.11 334.18 381.44 C 331.92 381.7 343.22 380.6 340.96 380.78 C 335.78 381.19 361.67 378.97 356.51 379.56 C 353.59 379.89 368.15 378.11 365.24 378.44 C 360.01 379.04 386.22 376.89 380.97 377.22 C 375.71 377.55 402 375.96 396.74 376.22 C 391.44 376.48 417.95 375.93 412.65 376 C 410.32 376.03 421.95 375.67 419.63 375.78 C 414.59 376.03 439.76 374.92 434.72 375 C 432.35 375.04 444.21 374.98 441.84 375 C 439.22 375.02 452.27 374.45 449.67 374.67 C 446.63 374.93 461.76 373.04 458.75 373.57 C 457.95 373.72 461.82 372.47 461.11 372.89 C 460.25 373.4 460.46 369.01 460.91 369.9 C 461.6 371.28 457.76 364.6 458.62 365.88 C 459.14 366.67 456.06 363.11 456.78 363.72 C 458.43 365.15 448.43 361.31 450.6 361.53 C 453.01 361.77 440.94 361.06 443.36 361.15 C 448.45 361.34 422.99 361.12 428.08 361.08 C 430.39 361.07 418.84 361.16 421.15 361.14 C 424.05 361.11 409.52 361.29 412.43 361.22 C 417.66 361.08 391.55 362.75 396.76 362.3 C 399.07 362.1 387.56 363.11 389.86 362.9 C 392.79 362.64 378.13 363.94 381.06 363.69 C 386.31 363.25 360.06 365.19 365.31 364.78 C 367.61 364.6 356.11 365.7 358.41 365.44 C 361.32 365.11 346.77 366.93 349.68 366.56 Z"/>
    <path d="M 261.51 60.26 C 260.35 57.53 256.86 49.36 258.04 52.08 C 258.92 54.1 254.38 44.04 255.32 46.04 C 256.45 48.45 250.69 36.46 251.85 38.85 C 252.31 39.79 249.5 36.48 250.45 36.04 C 251.42 35.59 251.32 40.26 251.07 39.21 C 250.44 36.56 253.79 49.76 253.08 47.13 C 252.5 45 255.61 55.6 254.94 53.49 C 254.07 50.72 258.56 64.52 257.68 61.76 C 256.98 59.57 260.34 70.56 259.7 68.35 C 258.87 65.52 262.91 79.7 262.11 76.86 C 261.06 73.2 268.16 98.09 266.47 92.04 C 265.06 86.98 271.61 112.4 270.35 107.3 C 269.79 105.06 272.64 116.24 272.06 114 C 271.31 111.17 275.06 125.34 274.32 122.5 C 273.74 120.27 276.54 131.44 276 129.2 C 275.31 126.35 278.65 140.62 278 137.77 C 276.82 132.66 282.53 158.24 281.39 153.12 C 280.94 151.1 283.28 161.18 282.79 159.17 C 281.92 155.55 286.2 173.65 285.42 170.01 C 284.88 167.47 287.13 180.27 286.76 177.7 C 286.42 175.39 288.06 186.92 287.71 184.62 C 286.97 179.75 291.21 204.02 290.36 199.17 C 289.97 196.94 291.68 208.11 291.39 205.87 C 291.01 203.02 292.67 217.29 292.37 214.44 C 291.84 209.51 294 234.19 293.62 229.25 C 293.46 227.08 294.28 237.95 294.12 235.78 C 293.91 232.98 294.95 246.96 294.75 244.16 C 294.37 238.97 296.16 264.96 295.78 259.76 C 295.63 257.7 296.51 268.01 296.31 265.95 C 296.08 263.64 297.32 275.17 297.08 272.87 C 296.94 271.49 297.52 278.38 297.43 277 C 297.28 274.41 297.37 287.4 297.47 284.8 C 297.55 282.46 297.01 294.19 297.13 291.84 C 297.39 286.82 295.9 311.94 296.22 306.91 C 296.36 304.72 295.2 323.18 295.4 320.16 C 295.5 318.76 294.96 325.72 295.08 324.33 C 295.19 323.13 294.55 329.14 294.7 327.94 C 294.84 326.74 294.03 332.76 294.2 331.56 C 294.48 329.69 293.06 339.02 293.34 337.16 C 293.94 333.13 291.31 353.29 291.67 349.24 C 291.81 347.68 294.08 354.71 292.78 353.82 C 291.46 352.92 299.13 354.47 297.53 354.55 C 296.25 354.63 301.66 351.74 301 352.84 C 300.39 353.86 302.42 348.34 302.15 349.49 C 301.13 353.88 305.09 331.71 304.44 336.17 C 304.04 338.88 305.9 325.32 305.56 328.03 C 305.04 332.2 306.85 311.31 306.61 315.49 C 306.54 316.85 306.82 310.08 306.79 311.43 C 306.76 312.64 306.77 306.6 306.79 307.81 C 306.84 310.71 306.18 296.24 306.33 299.13 C 306.4 300.29 306.18 294.5 306.21 295.66 C 306.23 296.87 306.23 290.83 306.21 292.04 C 306.17 293.43 306.46 286.46 306.38 287.85 C 306.15 292.04 306.98 271.09 306.96 275.28 C 306.95 277.65 306.82 265.81 306.87 268.18 C 306.92 270.79 306.29 257.74 306.5 260.34 C 306.62 261.71 305.95 254.89 306.1 256.25 C 306.35 258.52 305.08 247.2 305.31 249.47 C 305.82 254.45 303.86 229.51 304.22 234.5 C 304.38 236.81 303.44 225.28 303.65 227.58 C 303.93 230.57 302.1 211.99 302.17 212.62 C 302.53 216.33 300.56 197.79 301.03 201.49 C 301.35 204.07 299.34 191.23 299.8 193.79 C 300.22 196.07 298.06 184.65 298.51 186.93 C 299.47 191.84 294.34 167.37 295.42 172.25 C 295.91 174.5 293.39 163.26 293.91 165.51 C 295.07 170.61 288.94 145.15 290.25 150.22 C 290.99 153.07 287.22 138.85 287.98 141.69 C 288.57 143.93 285.59 132.76 286.19 134.99 C 286.95 137.84 283.13 123.63 283.9 126.47 C 285.28 131.54 278.19 106.21 279.65 111.26 C 280.3 113.49 276.99 102.4 277.67 104.61 C 278.53 107.43 274.12 93.39 275.01 96.19 C 276.61 101.2 268.33 76.27 270.08 81.23 C 270.85 83.4 266.78 72.62 267.64 74.76 C 269.6 79.62 259.46 55.43 261.51 60.26 Z"/>
  </g>
</svg>
