<svg xmlns="http://www.w3.org/2000/svg" viewBox="0 0 498 587" width="498" height="587" role="img" aria-label="Vectorized artwork">
  <title>Vectorized artwork</title>
  <g id="shape-group-1" fill="#36d7d4" fill-rule="evenodd">
    <path d="M 308.2 408.28 C 308.43 407.25 310.62 407.21 307.59 407.54 C 304.56 407.87 292.65 409.55 282.23 411.12 C 271.8 412.68 228.65 419.35 218.26 420.96 C 207.86 422.57 196.05 424.43 193.12 424.92 C 190.19 425.41 192.71 425.03 193.11 425.16 C 193.52 425.29 195.14 425.7 196.58 426.04 C 198.01 426.38 203.81 427.66 205.4 428.05 C 206.99 428.43 209.23 429.05 210.17 429.35 C 211.11 429.65 212.77 430.35 213.48 430.65 C 214.18 430.96 215.45 431.59 216.19 431.99 C 216.93 432.39 219.09 433.64 219.79 434.09 C 220.5 434.53 221.65 435.35 222.25 435.82 C 222.84 436.29 224.36 437.61 224.9 438.12 C 225.44 438.64 226.37 439.62 226.88 440.23 C 227.4 440.83 228.82 442.64 229.29 443.28 C 229.76 443.92 230.52 445.06 230.9 445.7 C 231.29 446.34 232.26 448.07 232.62 448.8 C 232.98 449.54 233.62 451.04 233.99 451.99 C 234.35 452.95 235.45 456.03 235.77 457.01 C 236.08 457.98 236.53 459.55 236.71 460.35 C 236.89 461.14 237.23 462.87 237.33 463.84 C 237.44 464.8 237.58 467.05 237.62 468.63 C 237.67 470.21 237.73 475.76 237.74 477.34 C 237.74 478.92 237.7 481.19 237.65 482.18 C 237.6 483.16 237.45 484.83 237.32 485.76 C 237.2 486.7 236.86 488.77 236.6 490.18 C 236.33 491.58 235.37 496.43 235.08 497.83 C 234.78 499.23 234.3 501.27 234.05 502.18 C 233.81 503.09 233.61 504 232.97 505.61 C 232.33 507.22 230.26 512.09 228.57 515.98 C 226.87 519.86 220.07 535.2 218.44 538.94 C 216.8 542.68 214.98 546.95 214.55 548.03 C 214.13 549.11 214.17 548.65 214.79 548.21 C 215.4 547.77 217.77 545.92 219.82 544.26 C 221.87 542.61 230.22 535.81 232.38 534.03 C 234.54 532.25 237.33 529.89 238.32 529.01 C 239.31 528.12 239.74 527.74 240.86 526.46 C 241.98 525.17 245.3 521.19 247.93 517.99 C 250.55 514.78 260.77 502.21 263.37 498.98 C 265.97 495.75 269.19 491.69 270.23 490.34 C 271.27 488.98 271.41 488.76 272.25 487.34 C 273.09 485.92 275.54 481.62 277.46 478.17 C 279.38 474.73 286.81 461.29 288.7 457.83 C 290.6 454.37 292.95 450.01 293.71 448.54 C 294.46 447.07 294.63 446.69 295.19 445.24 C 295.76 443.8 297.34 439.54 298.56 436.17 C 299.78 432.79 304.53 419.6 305.65 416.35 C 306.78 413.1 307.97 409.3 308.2 408.28 Z"/>
  </g>
  <g id="shape-group-2" fill="#111111" fill-rule="evenodd">
    <path d="M 463.04 369.45 C 462.99 369 462.75 367.3 462.68 366.87 C 462.61 366.44 462.51 365.92 462.47 365.76 C 462.42 365.6 462.41 365.61 462.28 365.49 C 462.15 365.37 461.72 365.02 461.35 364.74 C 460.99 364.46 459.54 363.36 459.16 363.08 C 458.77 362.8 458.23 362.45 458.02 362.34 C 457.8 362.22 457.59 362.17 457.31 362.1 C 457.04 362.04 456.26 361.89 455.66 361.79 C 455.06 361.69 453.7 361.31 452.17 361.22 C 450.64 361.13 446.11 361.03 442.54 361 C 438.96 360.97 425.09 360.99 421.51 361 C 417.92 361.01 413.37 361.04 411.82 361.08 C 410.27 361.11 412.11 360.88 408.2 361.27 C 404.28 361.66 390.23 363.13 378.28 364.41 C 366.33 365.68 321.23 370.21 305.75 372.19 C 290.26 374.18 262 378.51 245.57 381.41 C 229.14 384.31 180.55 393.89 164.93 397.09 C 149.31 400.29 124.28 405.82 111.66 408.85 C 99.03 411.89 65.62 420.79 56.69 423.11 C 47.76 425.43 37.62 428.07 35.11 428.74 C 32.59 429.4 28.37 429.89 35.12 428.79 C 41.86 427.69 69.01 423.23 92.91 419.29 C 116.82 415.36 215.94 399 240.01 395.05 C 264.08 391.1 291.89 386.57 299.22 385.4 C 306.55 384.24 301.77 385.15 302.82 385.09 C 303.88 385.03 306.44 384.96 308.27 384.93 C 310.1 384.9 316.7 384.87 318.53 384.82 C 320.35 384.77 322.88 384.63 323.91 384.51 C 324.94 384.39 326.71 383.97 327.36 383.82 C 328 383.67 328.98 383.41 329.44 383.26 C 329.9 383.1 330.83 382.66 331.29 382.5 C 331.75 382.34 332.73 382.05 333.38 381.88 C 334.03 381.7 335.08 381.28 336.84 381.03 C 338.6 380.78 344.05 380.17 348.45 379.73 C 352.84 379.29 370.12 377.68 374.52 377.27 C 378.93 376.86 384.41 376.38 386.19 376.24 C 387.98 376.1 387.61 376.09 389.82 376.07 C 392.04 376.04 399.25 376.01 405.18 376 C 411.11 375.99 434.76 376.02 440.64 376 C 446.53 375.98 453.55 375.88 455.6 375.8 C 457.66 375.72 457.78 375.39 458.22 375.3 C 458.66 375.21 459.19 375.1 459.36 375.06 C 459.53 375.01 459.52 375.04 459.64 374.94 C 459.76 374.84 460.13 374.49 460.41 374.2 C 460.7 373.9 461.82 372.73 462.1 372.4 C 462.39 372.08 462.74 371.62 462.86 371.43 C 462.97 371.23 463.07 370.96 463.09 370.73 C 463.11 370.5 463.09 369.9 463.04 369.45 Z"/>
    <path d="M 250.4 35.07 C 249.72 33.38 249.74 32.95 250.34 35.09 C 250.93 37.22 253.37 45.79 255.52 53.33 C 257.68 60.88 266.19 90.06 268.79 99.76 C 271.39 109.46 275.63 126.69 277.82 136.44 C 280 146.2 285.93 175.59 287.53 183.38 C 289.13 191.17 291.02 200.5 291.54 203.23 C 292.07 205.97 291.84 204.53 292.05 206.82 C 292.27 209.11 292.91 216.65 293.41 222.87 C 293.91 229.09 295.86 253.91 296.34 260.13 C 296.82 266.35 297.38 273.89 297.52 276.19 C 297.67 278.49 297.63 278.07 297.59 279.82 C 297.56 281.57 297.39 286.92 297.23 291.21 C 297.07 295.49 296.44 312.34 296.24 316.57 C 296.03 320.8 295.66 325.92 295.45 327.47 C 295.25 329.02 294.63 329.46 294.46 329.86 C 294.28 330.27 294.03 330.77 293.94 330.93 C 293.84 331.1 293.68 331.13 293.62 331.27 C 293.56 331.42 293.48 331.83 293.44 332.15 C 293.4 332.48 293.31 333.73 293.29 334.05 C 293.28 334.37 293.28 334.76 293.3 334.89 C 293.32 335.01 293.41 334.97 293.45 335.11 C 293.5 335.25 293.6 335.7 293.68 336.07 C 293.76 336.43 294.11 337.6 294.11 338.27 C 294.11 338.93 293.92 340.57 293.7 341.76 C 293.48 342.95 292.44 347.23 292.22 348.45 C 292.01 349.68 291.84 351.47 291.87 352.27 C 291.89 353.07 292.31 354.76 292.44 355.3 C 292.56 355.83 292.78 356.57 292.91 356.87 C 293.04 357.17 293.39 357.68 293.56 357.84 C 293.74 358.01 294.15 358.23 294.43 358.3 C 294.71 358.38 295.66 358.54 295.98 358.5 C 296.31 358.47 296.89 358.25 297.22 358.02 C 297.55 357.8 298.49 356.96 298.82 356.6 C 299.16 356.24 299.75 355.46 300.08 354.93 C 300.42 354.4 301.33 353.07 301.69 352.09 C 302.05 351.12 302.74 348.52 303.17 346.57 C 303.59 344.61 304.94 337.33 305.3 335.34 C 305.67 333.35 306.13 330.62 306.28 329.52 C 306.43 328.42 306.56 328 306.63 325.93 C 306.69 323.85 306.78 317.16 306.81 311.69 C 306.85 306.23 306.93 284.53 306.94 279.06 C 306.95 273.6 306.94 266.91 306.92 264.82 C 306.9 262.74 306.92 263.23 306.76 261.19 C 306.59 259.15 306.01 252.64 305.51 247.33 C 305.01 242.02 303.01 220.98 302.49 215.67 C 301.97 210.36 301.31 203.86 301.07 201.82 C 300.84 199.79 301.13 201.14 300.47 198.25 C 299.82 195.37 297.46 185.44 295.46 177.12 C 293.45 168.79 285.32 135.21 283.29 126.88 C 281.27 118.56 278.82 108.66 278.08 105.79 C 277.35 102.93 277.83 104.6 276.99 102.34 C 276.14 100.09 273.23 92.64 270.81 86.48 C 268.38 80.32 258.55 55.56 256.17 49.56 C 253.79 43.56 251.08 36.75 250.4 35.07 Z"/>
  </g>
</svg>
