<svg xmlns="http://www.w3.org/2000/svg" viewBox="0 0 498 587" width="498" height="587" role="img" aria-label="Vectorized artwork">
  <title>Vectorized artwork</title>
  <g id="shape-group-1" fill="#36d7d4" fill-rule="evenodd">
    <path d="M 309 407 C 309 407 192 425 192 425 C 192 425 207.39 428.05 211 429.32 C 214.61 430.59 220.47 433.83 222.93 435.89 C 225.4 437.95 230.46 444.07 232.13 447 C 233.8 449.93 236.59 456.8 237.26 461 C 237.92 465.2 238.19 478.1 237.82 483 C 237.45 487.9 236.87 495.3 234.09 503 C 231.31 510.7 214 549 214 549 C 214 549 233.95 533.93 240.65 526.93 C 247.35 519.93 265.45 497.63 271.43 489 C 277.41 480.37 287.52 462.57 291.9 453 C 296.28 443.43 309 407 309 407 Z"/>
  </g>
  <g id="shape-group-2" fill="#111111" fill-rule="evenodd">
    <path d="M 464 367 C 462.92 365.67 459.06 361.97 453 361.3 C 446.93 360.62 432.38 359.46 412 361.19 C 391.62 362.93 310.85 371.17 278.35 376.18 C 245.85 381.19 161.96 397.99 133.45 404.15 C 104.94 410.32 34 429 34 429 C 34 429 258.35 391.65 300 385.48 C 341.65 379.31 372.69 377.31 391 376.12 C 409.31 374.92 448.65 375.64 456.96 375.23 C 465.28 374.83 461.48 373.63 462.3 372.66 C 463.12 371.7 465.08 368.33 464 367 Z"/>
    <path d="M 250 34 C 250 34 268.85 98.52 273.62 118 C 278.38 137.48 288.08 181.87 290.82 201 C 293.57 220.13 297 264.04 297.11 282 C 297.23 299.96 291.95 345.81 291.82 354.91 C 291.69 364.01 296 360 296 360 C 296 360 301.17 355.18 302.45 349 C 303.73 342.82 306.47 316.56 306.99 307 C 307.51 297.44 307.68 279.9 306.9 267.07 C 306.12 254.23 303.68 215.91 300.28 197 C 296.89 178.09 283.69 124.02 277.83 105 C 271.96 85.98 250 34 250 34 Z"/>
  </g>
</svg>
